<svg width="25" height="25" viewBox="0 0 25 25" fill="none" xmlns="http://www.w3.org/2000/svg">
<path fill-rule="evenodd" clip-rule="evenodd" d="M19.3959 19.66C19.9859 18.76 20.2059 18.3 20.6559 17.29C17.3359 16.03 16.8059 11.3 20.0859 9.48999C19.0859 8.22999 17.6759 7.5 16.3459 7.5C15.3859 7.5 14.7259 7.75001 14.1359 7.98001C13.6359 8.17001 13.1859 8.34 12.6259 8.34C12.0259 8.34 11.4959 8.15001 10.9359 7.95001C10.3259 7.73001 9.6859 7.5 8.8859 7.5C7.3959 7.5 5.8059 8.41 4.7959 9.97C3.3759 12.17 3.62591 16.29 5.91591 19.81C6.73591 21.07 7.8359 22.48 9.2659 22.5C9.8659 22.51 10.2559 22.33 10.6859 22.14C11.1759 21.92 11.7059 21.68 12.6359 21.68C13.5659 21.67 14.0859 21.92 14.5759 22.14C14.9959 22.33 15.3759 22.51 15.9659 22.5C17.4159 22.48 18.5759 20.92 19.3959 19.66Z" fill="#D6D6D6"/>
<path fill-rule="evenodd" clip-rule="evenodd" d="M16.1359 2.5C16.2959 3.6 15.8459 4.69001 15.2559 5.45001C14.6259 6.27001 13.5259 6.91 12.4659 6.87C12.2759 5.81 12.7659 4.71999 13.3659 3.98999C14.0359 3.18999 15.1659 2.57 16.1359 2.5Z" fill="#D6D6D6"/>
</svg>
