<svg width="25" height="25" viewBox="0 0 25 25" fill="none" xmlns="http://www.w3.org/2000/svg">
<path fill-rule="evenodd" clip-rule="evenodd" d="M21.5959 2.73998L13.5959 4.33998C13.1259 4.42998 12.7959 4.83999 12.7959 5.31999V10.5C12.7959 11.05 13.2459 11.5 13.7959 11.5H21.7959C22.3459 11.5 22.7959 11.05 22.7959 10.5V3.71999C22.7959 3.08999 22.2159 2.61998 21.5959 2.73998Z" fill="#D6D6D6"/>
<path fill-rule="evenodd" clip-rule="evenodd" d="M21.5959 22.26L13.5959 20.66C13.1259 20.57 12.7959 20.16 12.7959 19.68V14.5C12.7959 13.95 13.2459 13.5 13.7959 13.5H21.7959C22.3459 13.5 22.7959 13.95 22.7959 14.5V21.28C22.7959 21.91 22.2159 22.38 21.5959 22.26Z" fill="#D6D6D6"/>
<path fill-rule="evenodd" clip-rule="evenodd" d="M9.58588 5.06008L3.58588 6.33007C3.12588 6.43007 2.7959 6.84008 2.7959 7.31008V10.5001C2.7959 11.0501 3.2459 11.5001 3.7959 11.5001H9.7959C10.3459 11.5001 10.7959 11.0501 10.7959 10.5001V6.03008C10.7959 5.40008 10.2059 4.92008 9.58588 5.06008Z" fill="#D6D6D6"/>
<path fill-rule="evenodd" clip-rule="evenodd" d="M9.58588 19.94L3.58588 18.67C3.12588 18.57 2.7959 18.16 2.7959 17.69V14.5C2.7959 13.95 3.2459 13.5 3.7959 13.5H9.7959C10.3459 13.5 10.7959 13.95 10.7959 14.5V18.97C10.7959 19.6 10.2059 20.08 9.58588 19.94Z" fill="#D6D6D6"/>
</svg>
